<svg width="600" height="600" xmlns="http://www.w3.org/2000/svg">
 <!-- Created with Method Draw - http://github.com/duopixel/Method-Draw/ -->
 <g>
  <title>Layer 1</title>
  <polyline stroke-linecap="round" id="svg_2" points="-199.5,93.5 -199.5,93.5 -199.5,93.5 " stroke-width="1.5" stroke="#000" fill="none"/>
  <path d="m-224.5,192.5c224.5,-192.5 224.5,-192.5 224.5,-192.5l-224.5,192.5l0,0l0,0" id="svg_13" stroke-width="1.5" stroke="#000" fill="none"/>
  <path d="m302.5,218.5c-1,0 -2,0 -5,0c-3,0 -6,0 -8,0c-1,0 -3,0 -4,0c-1,0 -2.29291,0.29289 -3,1c-0.70709,0.70711 -0.0979,1.82443 -2,3c-0.85065,0.52573 -1.4588,0.69344 -2,2c-0.38269,0.92387 -1,1 -1,2c0,2 0,3 0,4c0,1 -1,2 -1,3c0,1 0,2 0,4c0,2 0,3 0,4c0,1 0,2 0,3c0,1 -0.38269,2.07613 0,3c0.5412,1.30656 1.70547,2.34619 4,4c1.814,1.30745 3,2 5,3c2,1 4.01804,1.81088 5,2c5.28799,1.01837 7,3 8,3c2,0 5,0 8,0c3,0 5,0 6,0c2,0 3.58578,1.41422 5,0c0.70709,-0.70709 0.69254,-1.186 2,-3c0.8269,-1.14726 2.61731,-2.07613 3,-3c1.0824,-2.61313 3,-2 4,-4c1,-2 2.1731,-2.85274 3,-4c2.6149,-3.62799 2.4588,-5.69344 3,-7c0.38269,-0.92387 0.48627,-1.82375 1,-4c0.22977,-0.97325 0,-3 0,-4c0,-1 0,-2 0,-3c0,-1 0.38269,-2.07613 0,-3c-0.5412,-1.30656 -2.82443,-1.09789 -4,-3c-1.05145,-1.70131 -2.29291,-2.29289 -3,-3c-0.70709,-0.70711 -2.29291,-1.29289 -3,-2c-0.70709,-0.70711 -3.02676,-1.77025 -4,-2c-2.17624,-0.51375 -5.90778,-3.49623 -10,-4c-1.98502,-0.24437 -5.22836,0.14806 -8,-1c-2.61313,-1.0824 -4,-2 -5,-2c-2,0 -3,0 -4,0c-2,0 -2.29291,0.29289 -3,1c-1.41422,1.41422 -2.4588,0.69344 -3,2c-0.38269,0.92387 -1,2 -1,3c0,1 -0.61731,2.07613 -1,3c-0.5412,1.30656 -1.4588,1.69344 -2,3c-0.38269,0.92387 0.9021,2.82443 -1,4c-0.85065,0.52573 -1,2 -1,3l0,2l-1,0l0,1" id="svg_15" fill-opacity="null" stroke-opacity="null" stroke-width="1.5" stroke="#000" fill="none"/>
  <path d="m303.5,229.5c-1,0 -1.29291,0.29289 -2,1c-0.70709,0.70711 -1,1 -1,2c0,1 0,2 0,3c0,1 1.29291,1.29289 2,2c1.41422,1.41422 3,0 4,-1c1,-1 1,-3 1,-4c0,-1 0,-2 0,-3c0,-1 -2.0535,-1.4595 -4,-1c-2.17624,0.51375 -3.77023,2.02675 -4,3c-0.51373,2.17625 -3,4 -3,5c0,2 0,3 0,4c0,1 0.29291,2.29289 1,3c0.70709,0.70711 3.12872,0.86935 6,0c3.45084,-1.04483 4.23462,-3.15224 5,-5c1.0824,-2.61313 2,-4 2,-5c0,-1 0.30655,-2.4588 -1,-3c-1.84775,-0.76537 -3,0 -5,0c-1,0 -2,1 -3,2c-1,1 -1.48627,2.82375 -2,5c-0.22977,0.97325 1.32367,1.47984 3,0c2.703,-2.38617 2.23462,-4.15224 3,-6c0.5412,-1.30656 1,-3 1,-5c0,-1 -1.07611,-1.38269 -2,-1c-2.61313,1.0824 -2.4588,2.69344 -3,4c-0.38269,0.92387 -1,3 -1,6c0,1 -0.70709,2.29289 0,3c0.70709,0.70711 2,0 4,0c1,0 3.4588,-0.69344 4,-2c0.76538,-1.84776 0,-3 0,-4c0,-2 0.47186,-3.11833 0,-4c-1.70129,-3.17892 -5,-3 -7,-3c-1,0 -2.48627,-0.17625 -3,2c-0.22977,0.97325 0,2 0,5c0,1 0,2 0,3c0,2 1,3 2,3c1,0 4.29871,-1.82108 6,-5c0.94373,-1.76335 2,-4 2,-6c0,-2 0,-3 -1,-3c-2,0 -3.87766,0.06601 -5,2c-1.80972,3.11848 -3.14935,4.47427 -4,5c-1.9021,1.17557 -1,3 -1,5c0,1 -1.41422,2.58578 0,4c1.41422,1.41422 4,0 5,0c3,0 3.87766,-2.06601 5,-4c1.80972,-3.11848 3,-4 3,-6c0,-2 0,-3 0,-4c0,-1 0,-2 -1,-2c-2,0 -4.1731,-0.14726 -5,1c-1.30746,1.814 -3.95517,3.54915 -5,7c-0.86935,2.87128 -1,6 -1,8c0,2 0.3775,4.16942 2,3c2.56537,-1.84901 3.1731,-4.85274 4,-6c1.30746,-1.814 1.76538,-4.15224 1,-6c-0.5412,-1.30656 -2.07611,-2.38269 -3,-2c-1.30655,0.5412 -1.4588,2.69344 -2,4c-0.38269,0.92387 0,2 0,3c0,1 0,0 0,-1c0,-3 0,-4 0,-3l2,2l1,3l1,2" id="svg_16" fill-opacity="null" stroke-opacity="null" stroke-width="1.5" stroke="#000" fill="none"/>
  <path d="m442.5,216.5c-1,0 -2,0 -3,1c-1,1 -1.4588,1.69344 -2,3c-0.38269,0.92387 -1.4588,1.69344 -2,3c-0.76538,1.84776 -2.48627,2.82375 -3,5c-0.22977,0.97325 0,2 0,3c0,2 0,3 0,5c0,2 0,3 0,5c0,2 0.94855,5.29869 2,7c1.17557,1.90211 1.92807,4.61104 4,7c1.46509,1.68924 3.41885,3.41885 5,5c1.58115,1.58115 2.82443,2.0979 4,4c0.52573,0.85065 2.07611,1.61731 3,2c1.30655,0.5412 2,2 3,2c1,0 2,0 3,0c1,0 3.15225,0.76538 5,0c2.61313,-1.0824 3.297,-2.61383 6,-5c1.67633,-1.47983 3.48691,-2.08051 6,-4c2.86536,-2.18854 3.07611,-3.61731 4,-4c1.30655,-0.5412 2,-3 3,-4c2,-2 2.82443,-4.09789 4,-6c0.52573,-0.85065 0.82443,-1.09789 2,-3c0.52573,-0.85065 0.58578,-1.58578 2,-3c0.70709,-0.70711 0,-2 0,-3c0,-1 0,-2 0,-3c0,-1 0,-2 0,-3c0,-1 1.03146,-2.41208 -1,-6c-0.69678,-1.23065 -2.41885,-3.41885 -4,-5c-1.58115,-1.58115 -4,-4 -6,-5c-2,-1 -3.4588,-0.69344 -4,-2c-0.38269,-0.92387 -1.14935,-0.47427 -2,-1c-1.9021,-1.17557 -3.0535,-1.5405 -5,-2c-2.17624,-0.51375 -4,-1 -5,-1c-1,0 -2,0 -3,0c-1,0 -2.21167,0.71413 -5,3c-1.09366,0.89659 -2,1 -4,3c-1,1 -2.38687,1.9176 -5,3c-0.92389,0.38269 -2,1 -3,1l-1,0l-1,0" id="svg_17" fill-opacity="null" stroke-opacity="null" stroke-width="1.5" stroke="#000" fill="none"/>
  <path d="m457.5,227.5c0,1 1,1 1,3c0,2 0,3 0,5c0,2 1,3 1,4c0,1 0.29291,1.29289 1,2c1.41422,1.41422 3.48627,0.17625 4,-2c0.4595,-1.9465 1,-3 1,-5c0,-1 0.70709,-2.29289 0,-3c-0.70709,-0.70711 -2.29871,-1.05147 -4,0c-1.9021,1.17557 -2,4 -3,5c-1,1 -1,2 -1,4c0,2 0,3 1,3c1,0 2.41885,0.58115 4,-1c1.58115,-1.58115 3,-4 3,-5c0,-1 -0.29291,-1.29289 -1,-2c-0.70709,-0.70711 -3,-1 -4,-1c-1,0 -3.41885,0.41885 -5,2c-1.58115,1.58115 -1.4588,2.69344 -2,4c-0.38269,0.92387 -1.41422,2.58578 0,4c1.41422,1.41422 3.4505,0.54951 6,-2c2.5495,-2.54951 2,-5 2,-7c0,-2 0,-3 -2,-3c-2,0 -5,0 -6,0c-1,0 -2.77023,1.02675 -3,2c-0.51373,2.17625 -1,5 -1,6c0,1 -0.58472,3.18875 0,4c1.84903,2.56537 3.0979,1.82443 5,3c1.70129,1.05147 2.70547,-0.34619 5,-2c1.814,-1.30745 2.4588,-1.69344 3,-3c0.76538,-1.84776 0.58472,-4.18875 0,-5c-1.84903,-2.56537 -6,-1 -8,-1c-1,0 -2.41885,-0.58115 -4,1c-1.58115,1.58115 -2.5405,4.0535 -3,6c-0.51373,2.17625 -1,4 -1,6c0,1 0.29291,3.29289 1,4c1.41422,1.41422 4.1731,-1.85274 5,-3c1.30746,-1.814 1,-4 1,-6c0,-1 -0.0535,-2.4595 -2,-2c-2.17624,0.51375 -3,4 -3,6c0,3 0,5 1,5c1,0 1,-1 1,-2c0,-1 0,-3 0,-6c0,-1 -1.07611,-1.61731 -2,-2c-1.30655,-0.5412 -2.07611,-1.38269 -3,-1c-1.30655,0.5412 -1,4 -1,6c0,1 -0.70709,2.29289 0,3c0.70709,0.70711 2.0535,0.4595 4,0c2.17624,-0.51375 2.94855,-4.29869 4,-6c1.17557,-1.90211 2,-4 2,-6c0,-1 0,-3 -1,-4c-1,-1 -2.29291,-1.70711 -3,-1c-0.70709,0.70711 0,5 0,7c0,1 0.15225,1.23463 2,2c1.30655,0.5412 2.70547,0.65381 5,-1c1.814,-1.30745 3,-3 3,-4c0,-2 0,-3 0,-4l0,-1l0,-1l0,1" id="svg_19" fill-opacity="null" stroke-opacity="null" stroke-width="1.5" stroke="#000" fill="none"/>
 </g>
</svg>