<svg width="600" height="600" xmlns="http://www.w3.org/2000/svg">
 <!-- Created with Method Draw - http://github.com/duopixel/Method-Draw/ -->
 <g>
  <title>Layer 1</title>
  <polyline stroke-linecap="round" id="svg_2" points="-199.5,93.5 -199.5,93.5 -199.5,93.5 " stroke-width="1.5" stroke="#000" fill="none"/>
  <path d="m387.5,62.5c-2,0 -6,0 -9,0c-6,0 -10,0 -14,0c-3,0 -8.01364,-0.32992 -12,0c-6.06204,0.50171 -10.08026,2.31074 -13,3c-4.35251,1.02749 -7.50424,1.03551 -12,4c-2.3613,1.55702 -5.83771,1.83772 -9,5c-1.58115,1.58114 -3.74673,3.37135 -8,6c-1.9021,1.17557 -6,4 -9,6c-3,2 -5,4 -8,7c-5,5 -10,9 -15,14c-2,2 -5.25934,6.77061 -7,9c-3.58844,4.59599 -5.71411,9.21168 -8,12c-3.5864,4.37468 -5,8 -9,13c-4,5 -7.85114,8.48531 -10,13c-1.77199,3.7229 -3.56633,7.50446 -7,12c-4.89374,6.40714 -7.00041,10.29155 -11,17c-5.51543,9.25095 -6.69124,16.07179 -8,21c-1.62331,6.11269 -4.23174,10.92767 -6,17c-1.15277,3.95868 -3.34315,9.87605 -5,15c-1.26855,3.92311 -2.49756,9.9258 -3,15c-0.29561,2.9854 -0.51126,8.02997 -1,12c-0.50377,4.09222 -1.51126,10.02997 -2,14c-0.50377,4.09222 -2,7 -2,11c0,4 -0.49623,9.90778 -1,14c-0.48874,3.97003 0.08075,12.98453 1,18c1.0966,5.98309 1.54706,12.11237 3,17c1.53448,5.16193 4.11586,8.96384 5,12c1.15277,3.95868 1.87766,6.06601 3,8c1.80972,3.11847 4,7 5,10c1,3 2,6 3,9c1,3 4,6 5,9c1,3 1.96855,6.41208 4,10c1.39357,2.4613 3.34619,4.70547 5,7c2.6149,3.62799 3.51929,5.5582 6,9c1.30745,1.814 2.91753,7.05664 5,10c5.77573,8.16339 9.77196,13.11954 13,19c2.80591,5.11145 5.04868,9.28912 7,14c2.75958,6.6622 8.65131,11.28702 12,15c3.90521,4.33005 5,9 8,13c3,4 4.724,7.22272 8,11c1.85318,2.13675 2.69254,4.186 4,6c1.65381,2.29453 4,3 6,5c1,1 1.38687,1.9176 4,3c0.92389,0.38269 2,1 4,1c2,0 5,0 8,0c3,0 4,0 8,0c4,0 10,0 15,0c3,0 8,0 12,0c1,0 3,1 4,1c6,0 8.38687,-0.9176 11,-2c2.77164,-1.14804 8.90778,-1.49622 13,-2c2.97751,-0.36655 5.43936,-1.17194 6,-2c3.01907,-4.45929 10.12704,-2.67862 13,-4c5.29749,-2.43649 8.61105,-2.92807 11,-5c1.68924,-1.46509 4.297,-3.61383 7,-6c1.67633,-1.47983 4.31,-2.33749 7,-4c2.40601,-1.487 4.64886,-3.19577 7,-7c1.05145,-1.70129 4.56351,-4.70251 7,-10c1.32138,-2.87296 4.71411,-6.21167 7,-9c2.68979,-3.28101 5.78986,-8.07843 7,-11c2.56711,-6.19757 8.76859,-14.61292 11,-20c1.57785,-3.80927 4.98691,-8.75711 6,-15c0.64072,-3.94836 -0.46625,-8.09662 1,-14c1.52454,-6.13806 4.11893,-10.21539 6,-16c1.383,-4.25293 4.19409,-8.88855 7,-14c2.15204,-3.92029 4.5329,-10.21921 8,-17c2.65454,-5.19165 5.76859,-11.61292 8,-17c1.57785,-3.80927 3.19409,-9.88855 6,-15c2.15204,-3.92029 4.63297,-10.198 8,-16c1.80969,-3.11847 5,-9 7,-12c2,-3 3.67261,-7.70847 6,-14c1.43048,-3.867 3.43268,-9.05414 4,-12c1.01837,-5.28799 2.95514,-8.54916 4,-12c2.0285,-6.69965 1,-13 1,-18c0,-6 0,-11 0,-17c0,-8 -1.47552,-14.59309 -3,-23c-1.60583,-8.85558 -0.2005,-16.19374 -3,-26c-2.34546,-8.21577 -1.76215,-14.47955 -5,-21c-2.22375,-4.47826 -3.91876,-10.34508 -6,-15c-4.08173,-9.12906 -9.33749,-13.31001 -11,-16c-2.2305,-3.60901 -4.69254,-6.186 -6,-8c-1.65381,-2.29454 -4.11215,-3.9183 -7,-8c-2.08246,-2.94335 -4.71411,-6.21168 -7,-9c-2.68979,-3.28101 -6.22021,-5.79488 -9,-9c-3.276,-3.77727 -7,-8 -9,-10c-2,-2 -5.31,-4.33749 -8,-6c-2.40601,-1.48699 -4.82443,-2.09789 -6,-4c-0.52573,-0.85065 -2,-3 -4,-4c-2,-1 -4.31,-2.33749 -7,-4c-1.203,-0.7435 -2.07611,-1.61732 -3,-2c-1.30655,-0.54119 -1.69345,-1.45881 -3,-2c-0.92389,-0.38268 -3,0 -5,0c-2,0 -5,0 -7,0c-2,0 -5,0 -7,0c-3,0 -5,0 -8,0c-3,0 -6.69345,1.45881 -8,2c-0.92389,0.38268 -4.4588,-0.30656 -5,1c-0.38269,0.92388 -1.29291,0.29289 -2,1c-0.70709,0.70711 -1.07611,0.61732 -2,1c-1.30655,0.54119 -3,1 -4,1c-1,0 -2,0 -3,0l-1,0" id="svg_10" stroke-width="1.5" stroke="#000" fill="none"/>
  <path d="m348.5,266.5c-1,0 -2.186,0.69254 -4,2c-2.29453,1.65381 -3.21167,3.71411 -6,6c-2.18735,1.79318 -4.31021,4.71899 -7,8c-2.28589,2.78833 -3.33749,5.31 -5,8c-1.487,2.40601 -3.82443,5.0979 -5,7c-1.05145,1.70129 0,6 0,9c0,2 0,4 0,6c0,1 0,3 0,6c0,2 1,3 3,5c1,1 2.85272,3.1731 4,4c1.814,1.30746 5,3 8,5c3,2 6.797,4.2565 8,5c2.69,1.66251 5,1 7,1c2,0 4,0 6,0c1,0 4.28912,-0.04868 9,-2c3.33109,-1.37979 7.50424,-3.03552 12,-6c2.3613,-1.55704 4.07339,-3.93164 5,-5c3.276,-3.77728 5.38055,-7.76303 9,-14c3.36703,-5.802 6,-11 9,-17c3,-6 5.88135,-10.02521 7,-15c0.90457,-4.02264 1.34518,-6.17697 3,-11c1.45139,-4.23007 2,-7 2,-10c0,-2 0,-4 0,-5c0,-1 -1,-2 -2,-2l-2,-1l-1,0" id="svg_11" stroke-width="1.5" stroke="#000" fill="none"/>
  <path d="m251.5,329.5c0,1 0,4 0,8c0,4 0,8 0,13c0,7 0.42648,12.91574 2,22c1.37601,7.94397 2.43288,15.80243 5,22c2.42029,5.84314 4.07764,11.55801 8,17c3.30762,4.58908 5.9776,10.44437 9,16c3.05997,5.62463 7.06024,10.95032 12,17c4.0498,4.95975 5.94379,9.07645 10,12c2.56537,1.84903 5.82443,3.0979 7,5c1.05145,1.70129 1.0314,2.95856 5,6c4.27429,3.27573 7.70547,4.34619 10,6c1.814,1.30746 4.07257,2.46613 6,3c5.61938,1.55649 10.15927,5.61066 13,7c3.23892,1.58411 5.38687,3.9176 8,5c2.77164,1.14804 5.87857,0.49347 9,1c2.96127,0.48056 6,0 8,0c3,0 7,0 10,0c2,0 4,0 6,0c3,0 6.186,-1.69254 8,-3c1.14728,-0.8269 3.85272,-3.1731 5,-4c1.814,-1.30746 5.4505,-3.4505 8,-6c2.5495,-2.5495 6.46448,-4.46448 10,-8c3.53552,-3.53552 9.67947,-8.57111 12,-13c1.46762,-2.80109 3.71411,-7.21167 6,-10c1.79318,-2.18735 3.82443,-6.0979 5,-8c2.62866,-4.25327 4.41589,-5.76108 6,-9c1.38934,-2.84073 3.14429,-4.93414 4,-7c1.21014,-2.92157 1.78986,-5.07843 3,-8c0.85571,-2.06586 1.48627,-3.82376 2,-6c0.68927,-2.91974 0,-5 0,-6c0,-2 0,-6 0,-8c0,-4 -1.48627,-4.82376 -2,-7c-0.22977,-0.97324 -0.77023,-3.02676 -1,-4c-0.51373,-2.17624 -1.42044,-3.08582 -2,-5c-1.04483,-3.45084 -1.5405,-5.0535 -2,-7c-0.51373,-2.17624 -2,-3 -2,-4c0,-1 0.70709,-2.29291 0,-3c-0.70709,-0.70709 -1.41885,-1.58115 -3,0c-3.16229,3.16229 -2.724,6.22272 -6,10c-2.77979,3.20511 -4.33749,6.31 -6,9c-1.487,2.40601 -4.20682,4.81265 -6,7c-2.28589,2.78833 -4.75531,6.13202 -7,10c-1.80972,3.11847 -3.4505,5.4505 -6,8c-2.5495,2.5495 -4.61383,4.297 -7,7c-1.47983,1.67633 -3.4588,2.69345 -4,4c-0.38269,0.92389 -1.61731,1.07611 -2,2c-0.5412,1.30655 -2.85272,3.1731 -4,4c-1.814,1.30746 -3.15225,2.23462 -5,3c-2.61313,1.0824 -4,2 -5,3c-1,1 -2,1 -3,1c-1,0 -3.3775,1.16943 -5,0c-2.56537,-1.84903 -3.53491,-3.31076 -5,-5c-2.07193,-2.38895 -3.21167,-4.71411 -6,-7c-2.18735,-1.79318 -3.41885,-3.41885 -5,-5c-1.58115,-1.58115 -1.724,-3.22272 -5,-7c-0.92661,-1.06836 -3.33749,-3.31 -5,-6c-1.487,-2.40601 -3.41885,-4.41885 -5,-6c-1.58115,-1.58115 -3,-3 -4,-4c-1,-1 -3.32367,-2.52017 -5,-4c-2.703,-2.38617 -4.69254,-5.186 -6,-7c-1.65381,-2.29453 -5.34619,-4.70547 -7,-7c-1.30746,-1.814 -2,-3 -5,-6c-2,-2 -3.08051,-3.48691 -5,-6c-2.18854,-2.86536 -4.69254,-4.186 -6,-6c-1.65381,-2.29453 -4,-3 -6,-5c-1,-1 -3,-3 -4,-4c-1,-1 -1.69345,-2.4588 -3,-3c-1.84775,-0.76538 -2.85272,-2.1731 -4,-3c-1.814,-1.30746 -2.47427,-1.14935 -3,-2c-1.17557,-1.9021 -2.02676,-1.77023 -3,-2c-2.17624,-0.51373 -2.69345,-1.4588 -4,-2c-1.84775,-0.76538 -3,0 -4,0c-2,0 -3,0 -5,0l-1,0l-1,0l-1,0" id="svg_12" stroke-width="1.5" stroke="#000" fill="none"/>
  <path d="m-224.5,192.5c224.5,-192.5 224.5,-192.5 224.5,-192.5l-224.5,192.5l0,0l0,0" id="svg_13" stroke-width="1.5" stroke="#000" fill="none"/>
 </g>
</svg>