<svg width="600" height="600" xmlns="http://www.w3.org/2000/svg">
 <!-- Created with Method Draw - http://github.com/duopixel/Method-Draw/ -->
 <g>
  <title>Layer 1</title>
  <polyline stroke-linecap="round" id="svg_2" points="-199.5,93.5 -199.5,93.5 -199.5,93.5 " stroke-width="1.5" stroke="#000" fill="none"/>
  <path d="m-224.5,192.5c224.5,-192.5 224.5,-192.5 224.5,-192.5l-224.5,192.5l0,0l0,0" id="svg_13" stroke-width="1.5" stroke="#000" fill="none"/>
  <path d="m185.5,74.5c0,2 1.2213,7.31856 4,13c3.16821,6.47784 8.40382,11.72847 13,19c5.50092,8.70287 10.83507,16.11329 15,22c5.77573,8.16339 9.61545,14.2686 16,23c3.77946,5.16872 5.186,6.69255 7,8c1.14726,0.8269 2.12706,-4.04778 3,-12c1.00601,-9.16449 3,-18 3,-26c0,-7 0,-15 0,-22c0,-5 0,-8 0,-9c0,-3 2.0728,-0.01785 4,8c3.11804,12.97219 10.32443,29.3157 19,47c6.50293,13.25563 14.90936,28.05495 21,38c4.92706,8.04512 5.82108,16.70131 9,15c8.81674,-4.71858 -0.95862,-25.00325 -2,-38c-0.96179,-12.00313 -2.99594,-19.86484 -4,-31c-0.44904,-4.9798 0,-13 0,-20c0,-7 0,-12 0,-16c0,-5 1,-9 1,-10c0,-2 0.14935,-3.52573 1,-3c1.9021,1.17557 3.0585,6.63586 5,14c2.30847,8.7562 2.89163,17.25057 5,24c2.00018,6.40307 4,9 4,4c0,-12 0,-22 0,-36c0,-14 0,-27 0,-39c0,-12 -0.88107,-20.2154 1,-26c0.6915,-2.12646 1.17194,-3.56063 2,-3c4.45929,3.01908 6.40164,11.84119 9,19c3.56204,9.81386 6.22839,18.88903 11,29c4.20337,8.90684 6.29773,18.39155 11,26c2.62866,4.25326 4.69345,9.5412 6,9c1.84775,-0.76537 0,-6 1,-12c1,-6 3.80679,-16.03381 6,-28c1.8385,-10.03094 3.49756,-16.9258 4,-22c0.29562,-2.9854 2,-6 2,-5c0,4 -0.49924,8.95847 -1,18c-0.49771,8.98623 -1,17 -1,28c0,6 -2.96127,12.51945 0,13c3.12143,0.50654 3.82037,-11.76695 6,-21c1.6246,-6.88191 5.88452,-15.30511 12,-24c5.92303,-8.42127 8.72171,-15.03816 13,-19c1.64066,-1.51929 3.48056,-0.96126 3,2c-1.01309,6.24289 -5.13083,12.95797 -7,19c-2.15158,6.9549 -4.49829,13.93797 -5,20c-0.24744,2.98978 0,7 0,8c0,1 1.0535,1.4595 3,1c2.17624,-0.51374 6.68167,-3.92245 23,-15c9.4335,-6.40384 18.89172,-14.19576 26,-18c5.91446,-3.16532 10,-3 10,-4c0,-1 -5.15533,2.87389 -10,9c-3.10147,3.92184 -6.4733,10.29366 -10,16c-2.62866,4.25326 -3.49622,6.90778 -4,11c-0.12219,0.99251 0.10263,2.63245 2,2c4.74341,-1.58114 10.45404,-8.51277 18,-16c8.54788,-8.48137 14.59445,-17.55521 24,-24c4.81009,-3.29592 8.29291,-7.70711 9,-7c1.41422,1.41422 -0.82715,8.08878 -5,16c-4.80331,9.10649 -7.06982,19.98878 -8,26c-1.0813,6.9879 -1,13 -1,16c0,2 0.10263,3.63245 2,3c4.74341,-1.58114 7.95621,-8.05148 15,-14c8.90979,-7.52435 19.10342,-13.85827 26,-19c9.1409,-6.81498 15.90778,-9.49623 20,-10c1.98499,-0.24437 2.35114,1.19577 0,5c-2.62866,4.25325 -5.53375,10.0966 -7,16c-1.52454,6.13806 -3.43268,10.05413 -4,13c-1.01837,5.28799 -2,8 -2,9c0,1 5.0307,-0.96436 12,-7c8.03558,-6.95909 16.2251,-13.67539 25,-20c9.24957,-6.66672 11.82373,-7.48626 14,-8c0.97327,-0.22975 1.89764,2.3214 -1,9c-2.32086,5.34917 -4.08075,11.98453 -5,17c-1.09662,5.9831 -1.1604,13.96328 -2,18c-1.23865,5.95531 -3,11 -1,11c1,0 3.55817,-5.51929 7,-8c1.81396,-1.30745 4,-1 4,1c0,7 -1.38647,14.33739 -6,22c-4.43713,7.36966 -8.73328,14.23274 -14,20c-4.76831,5.22144 -7.3869,8.9176 -10,10c-0.92389,0.38269 -1.96112,-2.07747 -1,-8c1.01306,-6.24289 5.23108,-12.80836 11,-20c3.12866,-3.90021 5,-4 5,-5c0,-3 -8.40607,0.80872 -11,-1c-5.25232,-3.66238 -6.69257,-7.186 -8,-9c-0.8269,-1.14727 -1,-2 -1,3c0,8 2.94427,16.39223 6,23c3.02673,6.54514 7,10 8,10c2,0 4.71826,1.26341 8,-5c5.18884,-9.90332 2,-20 2,-30c0,-11 0.17688,-21.80802 -7,-31c-6.09229,-7.80283 -13.69916,-15.48661 -25,-17c-7.92923,-1.06187 -12.55801,-0.92236 -18,3c-4.58908,3.30762 -12.59534,13.20181 -16,22c-4.03491,10.42686 -2,20 -2,30c0,8 1.04443,16.76147 6,22c3.43607,3.63226 6.0535,4.4595 8,4c4.35251,-1.02748 14.81464,-16.04863 17,-24c2.76685,-10.06701 6.52728,-19.29426 4,-30c-2.05499,-8.705 -11.23541,-14.73579 -18,-21c-2.07529,-1.92178 -5.01022,-2.24744 -8,-2c-6.06204,0.50171 -9.60095,4.83212 -11,11c-1.78345,7.86253 -3.29752,17.26751 -1,27c2.05496,8.705 7.81995,16.0161 14,22c5.18057,5.01614 11.29865,5.70213 16,4c7.34375,-2.65881 18.66638,-19.32822 22,-30c4.21674,-13.49886 3.90265,-24.57824 0,-34c-4.13934,-9.99329 -14.47125,-15.45877 -21,-17c-7.78598,-1.83802 -17.47021,-0.92368 -26,4c-11.77982,6.79969 -21.94882,17.3989 -28,28c-5.98996,10.49384 -9,22 -9,33c0,7 2.2337,15.64108 7,19c4.16803,2.93729 11.35049,1.84308 17,-1c10.90369,-5.4872 18.39713,-15.23766 25,-29c6.4306,-13.40327 7.9053,-25.20399 6,-34c-2.55798,-11.80918 -10.71448,-21.28796 -20,-25c-15.89423,-6.35398 -32.53799,-3.34999 -44,2c-13.83179,6.45611 -21.51907,17.35449 -29,27c-5.6503,7.2852 -8.49939,14.9626 -9,25c-0.24905,4.99379 2.46356,13.72507 9,18c5.61414,3.67173 15.27127,4.92978 22,3c9.06839,-2.60078 17.37747,-10.35165 23,-21c3.85037,-7.2921 3,-16 3,-24c0,-10 -5.6662,-19.41108 -15,-23c-20.61902,-7.92818 -31.34326,-4.31827 -39,-2c-10.35254,3.13449 -19.33328,11.75042 -26,21c-6.32462,8.77493 -10.49939,16.9626 -11,27c-0.44833,8.98882 3.17285,20.12804 11,25c6.46558,4.02446 11.18726,5.60828 18,4c2.17624,-0.51375 10.03857,-6.09675 16,-14c6.19998,-8.21951 8,-18 8,-26c0,-10 -6.82675,-20.22862 -16,-27c-9.82074,-7.24934 -18.97324,-11.49968 -33,-12c-10.99301,-0.39211 -31.36111,2.53553 -39,11c-6.32053,7.00362 -8.49948,13.96599 -9,25c-0.36252,7.99178 2.53552,20.3611 11,28c7.00363,6.32054 17.95331,9.49903 26,10c7.98453,0.4971 18.23737,-3.73766 26,-11c7.22906,-6.76318 14.97607,-17.77932 17,-29c1.96066,-10.86995 2.80084,-21.12598 -4,-30c-7.32474,-9.55762 -21.69913,-16.48661 -33,-18c-13.87613,-1.85826 -24.95007,-1.50441 -32,4c-7.26691,5.67382 -16.9563,14.23104 -20,32c-1.5195,8.8708 -2.82333,17.36851 0,28c2.06934,7.79217 9.38062,14.44352 15,16c3.85486,1.06773 7.47504,0.7522 11,-2c7.26691,-5.67382 10.99246,-14.81557 12,-23c0.85529,-6.94756 2.0629,-13.82415 -2,-21c-4.18069,-7.38389 -12,-9 -18,-9c-12,0 -25.24472,3.08682 -43,16c-10.88037,7.91314 -21.70511,17.84766 -28,29c-9.95308,17.63339 -7.638,27.02264 -7,36c0.50127,7.05328 6.38062,15.44353 12,17c5.78229,1.60161 14.66647,1.38399 22,-3c9.12411,-5.45439 15.94882,-15.3989 22,-26c5.98996,-10.49384 6.49957,-19.96881 7,-32c0.41559,-9.99136 -3.92029,-18.11351 -11,-23c-5.93472,-4.09621 -13.254,-5.86854 -20,-4c-11.23874,3.11295 -16.54181,9.4367 -28,21c-9.4696,9.55649 -18.35699,19.01131 -22,31c-3.21136,10.56822 -3.07591,23.21785 -1,33c2.04454,9.63431 12.77739,14.49266 28,16c8.95621,0.88684 16.73459,-4.43195 22,-12c5.87997,-8.45139 10.49969,-18.97325 11,-33c0.42776,-11.99237 1.32269,-24.70323 -5,-35c-6.70114,-10.91306 -17.07294,-20.49363 -26,-25c-9.32013,-4.70479 -17.49692,-5.77557 -25,-3c-8.64687,3.19868 -12.78732,9.74748 -15,18c-1.57527,5.87524 -3.50841,16.31972 -1,26c2.58257,9.96646 13.26608,18.64575 23,22c18.18591,6.26675 26.96616,2.43875 35,-4c9.39624,-7.53065 19.34479,-18.05888 26,-29c5.11832,-8.41444 6.48038,-16.63567 8,-26c1.12128,-6.90961 -3.36569,-13.95546 -13,-16c-8.80396,-1.86832 -15.20422,-2.01066 -25,0c-7.46024,1.53127 -12.99411,7.51905 -16,15c-3.07446,7.65164 -5.74658,18.42934 -3,27c2.62524,8.19196 12.18652,18.45807 35,22c9.88162,1.53418 16.40128,3.4463 31,0c19.58627,-4.62369 42.68655,-22.18886 57,-35c10.53769,-9.43169 17.99399,-20.8355 19,-30c0.65469,-5.96417 0.52875,-11.45877 -6,-13c-11.67899,-2.75703 -22.42334,1.42824 -28,6c-3.28101,2.68979 -5,9 -5,16c0,8 2.31924,17.02754 14,25c14.42465,9.84526 38.91782,17.499 80,19c37.97467,1.38746 74.28699,1.31209 100,-5c20.27856,-4.97803 24.64838,-7.42654 29,-13c3.58844,-4.59599 2,-5 1,-5c-2,0 -6.98163,3.71201 -8,9c-1.13464,5.89174 -1.76215,13.43079 2,25c3.45746,10.63231 12.57446,20.39336 20,28c5.45575,5.58881 8.64752,9.97252 13,11c1.94647,0.4595 2.09369,-2.10341 1,-3c-2.78833,-2.28587 -9.81555,-5.99245 -18,-7c-11.9101,-1.4662 -24.05353,-2.08391 -35,-1c-10.14844,1.0049 -16.21167,5.71413 -19,8c-4.37469,3.58638 -5.14429,5.93414 -6,8c-1.21014,2.92157 -1.76538,6.15224 -1,8c0.5412,1.30656 2.18604,2.69255 4,4c2.29456,1.65381 3.18604,1.69255 5,3c1.14728,0.8269 2,2 3,2c1,0 1,-1 1,-4c0,-5 -3.12683,-11.68471 -8,-17c-4.32715,-4.71974 -8,-6 -9,-6c-1,0 -3.18243,6.0584 -2,18c1.50732,15.22261 7.6557,29.14233 14,44c4.74506,11.11237 10.59399,21.22768 16,26c5.02899,4.43951 8.44806,4.57719 11,3c5.70636,-3.52672 4.61816,-18.00562 5,-31c0.50024,-17.02203 2.16748,-31.05254 1,-44c-1.00403,-11.13516 -8.19714,-20.90773 -16,-27c-4.59601,-3.58844 -10.08026,-4.68925 -13,-4c-8.70502,2.05498 -13.63232,11.8495 -15,19c-1.888,9.87094 -1.49268,18.02434 -1,23c0.50244,5.0742 3.82373,7.48625 6,8c2.91974,0.68925 6,-3 10,-9c4,-6 6.49939,-13.9626 7,-24c0.4483,-8.98883 -2.448,-16.44547 -9,-24c-5.55957,-6.41023 -13.22882,-13.22624 -19,-16c-11.71692,-5.63145 -17.01352,-0.43496 -24,0c-8.04669,0.50097 -12.49622,4.90778 -13,9c-0.12219,0.99251 1,3 4,3c5,0 10.63623,-2.18024 16,-7c5.80939,-5.22022 8,-13 8,-20c0,-9 -6.89349,-17.19669 -16,-22c-9.88901,-5.21606 -25.01645,-5.27497 -41,-6c-11.03403,-0.50051 -29.93762,-2.73209 -44,6c-10.87943,6.75561 -18.64288,14.61801 -22,21c-2.50705,4.76599 -3.05145,8.2987 -2,10c1.17557,1.90211 8.35825,2.4263 15,0c8.86124,-3.23709 16.58231,-9.97722 20,-17c6.26532,-12.87423 3.63226,-18.56393 0,-22c-5.23853,-4.95558 -16.96881,-4.49957 -29,-5c-8.99222,-0.37403 -18.93674,4.1067 -29,10c-13.91412,8.14846 -22.07294,16.95488 -27,25c-3.04532,4.97253 -5,12 -5,18c0,4 -0.45084,7.95517 3,9c0.95709,0.28978 4.51187,-1.39056 7,-4c4.02386,-4.22002 6,-11 6,-15c0,-13 -2.67532,-21.0377 -11,-25c-10.09515,-4.80499 -22.28622,-3.83106 -28,-2c-8.19196,2.62524 -18.76706,14.21467 -28,24c-8.78867,9.31448 -14.62408,18.10802 -19,28c-3.33603,7.54128 -2.36655,14.02248 -2,17c0.50378,4.09221 3,5 6,5c3,0 7.87689,-1.75378 12,-10c4.12311,-8.24622 3,-17 3,-25c0,-6 -1.95782,-12.88052 -8,-15c-8.49265,-2.97906 -17.27087,-0.50854 -27,5c-11.34602,6.424 -21.29413,15.74292 -30,26c-8.28696,9.76352 -18.38818,22.77711 -24,33c-5.38008,9.80075 -7,16 -7,17c0,1 6.02409,-4.98132 13,-14c10.03473,-12.97322 19.69415,-28.62889 28,-45c5.46695,-10.77555 6.99023,-21.79026 8,-29c0.55481,-3.96133 -0.10558,-5.44721 -1,-5c-4.47214,2.23607 -4.29593,12.10707 -2,32c1.28186,11.10661 5.58624,23.30278 13,33c4.74362,6.20468 9.69345,11.4588 11,12c0.92389,0.38269 3.12717,0.636 5,-4c3.01984,-7.47533 3.15472,-17.0477 2,-31c-1.00342,-12.12408 -2.92398,-24.32156 -7,-36c-3.98169,-11.40816 -10.97252,-19.6475 -12,-24c-0.22975,-0.97325 0,3 0,9c0,10 0.96416,21.42769 8,37c6.9996,15.49211 14.37692,27.04434 20,34c4.02551,4.97949 6.19739,4.86638 8,4c5.77115,-2.77376 10.72122,-15.74512 15,-29c6.03552,-18.69686 9.22076,-33.21523 14,-49c4.30795,-14.2282 6,-24 6,-29c0,-2 -0.91501,6.03493 0,18c1.00293,13.11465 2,26 3,38c1,12 -0.53552,22.3934 3,33c1.41422,4.24265 4.18881,5.84831 6,5c7.07288,-3.31276 12.13736,-15.56551 17,-30c3.94888,-11.72205 9.51114,-27.35681 14,-40c3.08466,-8.6882 5,-14 4,-14c-5,0 -2,18 -2,29c0,12 -1.28146,24.1033 0,32c1.01309,6.24289 5,8 6,8c2,0 6.586,-3.87593 8,-12c1.72327,-9.90102 3,-21 3,-29c0,-6 0.48627,-8.82375 1,-11c0.22977,-0.97325 1.9176,-0.38687 3,-3c0.38269,-0.92388 0,3 0,11c0,9 -1,21 -1,32c0,10 2.37128,19.59218 9,26c4.60376,4.45033 8.69098,4.7484 12,1c5.33563,-6.0441 8.75519,-16.03058 10,-25c1.67236,-12.05003 2,-22 2,-28c0,-6 0.23773,-8.06903 1,-5c1.46625,5.9034 3.49295,12.23401 6,17c3.35712,6.38199 8.38687,10.91761 11,12c1.84775,0.76537 5.30447,1.53073 9,0c5.22626,-2.16479 9.99411,-9.51905 13,-17c1.53723,-3.82582 2,-8 1,-8c-3,0 0,7 0,12c0,6 1,13 2,15c1,2 3,2 4,2c1,0 4.82462,-3.06133 7,-9c1.85226,-5.05659 4.38687,-14.08239 7,-13c6.46716,2.67879 1.46619,19.08991 0,31c-1.51132,12.27664 -2.00488,23.85159 -1,34c0.68976,6.96593 1,9 2,9c1,0 4.91205,-4.65947 9,-17c3.88962,-11.74184 8.18411,-25.97301 10,-39c1.11307,-7.98505 3.98163,-15.71201 5,-21c0.18912,-0.98196 1,-1 2,-1c1,0 4.32828,5.38587 8,11c4.2749,6.53644 9.38062,12.44352 15,14c2.89117,0.8008 6,0 8,0c1,0 0.29291,-1.29289 1,-2c0.70709,-0.70711 1.69257,1.186 3,3c0.8269,1.14727 1.87616,-1.04415 3,-4c2.70648,-7.11863 4.37134,-12.74674 7,-17c3.52673,-5.70634 6,-11 8,-13l0,-2l1,0" id="svg_14" stroke-width="1.5" stroke="#000" fill="none"/>
 </g>
</svg>